<mxfile host="Electron" agent="Mozilla/5.0 (Windows NT 10.0; Win64; x64) AppleWebKit/537.36 (KHTML, like Gecko) draw.io/26.2.2 Chrome/134.0.6998.178 Electron/35.1.2 Safari/537.36" version="26.2.2">
  <diagram name="Pagina-1" id="scAkO67nO8vLIO7N6Py0">
    <mxGraphModel dx="985" dy="580" grid="1" gridSize="10" guides="1" tooltips="1" connect="1" arrows="1" fold="1" page="1" pageScale="1" pageWidth="827" pageHeight="1169" math="1" shadow="0">
      <root>
        <mxCell id="0" />
        <mxCell id="1" parent="0" />
        <mxCell id="q49qr0dGzDuJ1PVvxaYv-1" value="" style="endArrow=classic;html=1;rounded=0;" edge="1" parent="1">
          <mxGeometry width="50" height="50" relative="1" as="geometry">
            <mxPoint x="120" y="400" as="sourcePoint" />
            <mxPoint x="430" y="400" as="targetPoint" />
          </mxGeometry>
        </mxCell>
        <mxCell id="q49qr0dGzDuJ1PVvxaYv-2" value="" style="endArrow=classic;html=1;rounded=0;" edge="1" parent="1">
          <mxGeometry width="50" height="50" relative="1" as="geometry">
            <mxPoint x="160" y="420" as="sourcePoint" />
            <mxPoint x="160" y="180" as="targetPoint" />
          </mxGeometry>
        </mxCell>
        <mxCell id="q49qr0dGzDuJ1PVvxaYv-3" value="" style="endArrow=classic;html=1;rounded=0;" edge="1" parent="1">
          <mxGeometry width="50" height="50" relative="1" as="geometry">
            <mxPoint x="480" y="400" as="sourcePoint" />
            <mxPoint x="790" y="400" as="targetPoint" />
          </mxGeometry>
        </mxCell>
        <mxCell id="q49qr0dGzDuJ1PVvxaYv-4" value="" style="endArrow=classic;html=1;rounded=0;" edge="1" parent="1">
          <mxGeometry width="50" height="50" relative="1" as="geometry">
            <mxPoint x="520" y="420" as="sourcePoint" />
            <mxPoint x="520" y="180" as="targetPoint" />
          </mxGeometry>
        </mxCell>
        <mxCell id="q49qr0dGzDuJ1PVvxaYv-5" value="$$\text{Ether IRF}$$" style="text;html=1;align=center;verticalAlign=middle;resizable=0;points=[];autosize=1;strokeColor=none;fillColor=none;" vertex="1" parent="1">
          <mxGeometry x="90" y="130" width="130" height="30" as="geometry" />
        </mxCell>
        <mxCell id="q49qr0dGzDuJ1PVvxaYv-6" value="$$\text{Earth IRF}$$" style="text;html=1;align=center;verticalAlign=middle;resizable=0;points=[];autosize=1;strokeColor=none;fillColor=none;" vertex="1" parent="1">
          <mxGeometry x="460" y="130" width="130" height="30" as="geometry" />
        </mxCell>
        <mxCell id="q49qr0dGzDuJ1PVvxaYv-9" value="" style="pointerEvents=1;verticalLabelPosition=bottom;shadow=0;dashed=0;align=center;html=1;verticalAlign=top;shape=mxgraph.electrical.waveforms.sine_wave;rotation=-90;strokeColor=#FF0000;" vertex="1" parent="1">
          <mxGeometry x="115" y="321" width="90" height="66.18" as="geometry" />
        </mxCell>
        <mxCell id="q49qr0dGzDuJ1PVvxaYv-10" value="" style="rounded=0;whiteSpace=wrap;html=1;rotation=90;" vertex="1" parent="1">
          <mxGeometry x="100" y="445" width="120" height="30" as="geometry" />
        </mxCell>
        <mxCell id="q49qr0dGzDuJ1PVvxaYv-11" value="" style="rounded=0;whiteSpace=wrap;html=1;rotation=105;" vertex="1" parent="1">
          <mxGeometry x="444" y="443" width="120" height="30" as="geometry" />
        </mxCell>
        <mxCell id="q49qr0dGzDuJ1PVvxaYv-12" value="" style="pointerEvents=1;verticalLabelPosition=bottom;shadow=0;dashed=0;align=center;html=1;verticalAlign=top;shape=mxgraph.electrical.waveforms.sine_wave;rotation=-75;strokeColor=#FF0000;" vertex="1" parent="1">
          <mxGeometry x="487" y="323" width="90" height="66.18" as="geometry" />
        </mxCell>
        <mxCell id="q49qr0dGzDuJ1PVvxaYv-13" value="$$\text{detector}$$" style="text;html=1;align=center;verticalAlign=middle;resizable=0;points=[];autosize=1;strokeColor=none;fillColor=none;rotation=-90;" vertex="1" parent="1">
          <mxGeometry x="100" y="447" width="120" height="30" as="geometry" />
        </mxCell>
        <mxCell id="q49qr0dGzDuJ1PVvxaYv-14" value="$$\text{detector}$$" style="text;html=1;align=center;verticalAlign=middle;resizable=0;points=[];autosize=1;strokeColor=none;fillColor=none;rotation=-75;" vertex="1" parent="1">
          <mxGeometry x="444" y="445" width="120" height="30" as="geometry" />
        </mxCell>
        <mxCell id="q49qr0dGzDuJ1PVvxaYv-16" value="" style="endArrow=none;dashed=1;html=1;rounded=0;exitX=-0.012;exitY=0.508;exitDx=0;exitDy=0;exitPerimeter=0;" edge="1" parent="1" source="q49qr0dGzDuJ1PVvxaYv-12">
          <mxGeometry width="50" height="50" relative="1" as="geometry">
            <mxPoint x="570" y="380" as="sourcePoint" />
            <mxPoint x="570" y="220" as="targetPoint" />
          </mxGeometry>
        </mxCell>
        <mxCell id="q49qr0dGzDuJ1PVvxaYv-18" value="$$\alpha$$" style="text;html=1;align=center;verticalAlign=middle;resizable=0;points=[];autosize=1;strokeColor=none;fillColor=none;" vertex="1" parent="1">
          <mxGeometry x="492" y="280" width="80" height="30" as="geometry" />
        </mxCell>
        <mxCell id="q49qr0dGzDuJ1PVvxaYv-23" value="" style="endArrow=none;html=1;rounded=0;edgeStyle=orthogonalEdgeStyle;curved=1;shadow=0;flowAnimation=0;" edge="1" parent="1">
          <mxGeometry width="50" height="50" relative="1" as="geometry">
            <mxPoint x="519.75" y="310" as="sourcePoint" />
            <mxPoint x="539.75" y="330" as="targetPoint" />
          </mxGeometry>
        </mxCell>
      </root>
    </mxGraphModel>
  </diagram>
</mxfile>
